<svg width="512" height="512" viewBox="0 0 512 512" fill="none" xmlns="http://www.w3.org/2000/svg">
<path d="M256 298.667C291.413 298.667 319.787 270.08 319.787 234.667L320 106.667C320 71.2533 291.413 42.6667 256 42.6667C220.587 42.6667 192 71.2533 192 106.667V234.667C192 270.08 220.587 298.667 256 298.667ZM369.067 234.667C369.067 298.667 314.88 343.467 256 343.467C197.12 343.467 142.933 298.667 142.933 234.667H106.667C106.667 307.413 164.693 367.573 234.667 378.027V448H277.333V378.027C347.307 367.787 405.333 307.627 405.333 234.667H369.067Z" fill="white"/>
</svg>
